<svg width="54" height="54" viewBox="0 0 54 54" fill="none" xmlns="http://www.w3.org/2000/svg">
<path d="M18.8889 18.9557C17.7778 18.1557 16.9667 17.5668 16.1556 16.9891C12.8889 14.6446 9.60005 12.3113 6.3556 9.93351C5.57782 9.36684 4.84449 8.66684 4.30005 7.88906C3.98893 7.42239 3.88893 6.58906 4.10005 6.10017C4.22227 5.81128 5.22227 5.65573 5.70005 5.82239C6.86671 6.21128 8.00005 6.74462 9.06671 7.35573C12.3889 9.27795 15.6778 11.2668 19.1112 13.3113C19.4223 11.2668 19.6889 9.23351 20.0667 7.22239C20.3556 5.66684 20.7556 4.11128 21.1889 2.58906C21.4667 1.60017 22.0556 0.744616 23.2445 0.911283C24.4778 1.07795 24.8778 2.05573 24.8556 3.15573C24.8112 6.43351 24.7 9.70017 24.6334 12.978C24.6112 13.7557 24.6334 14.5335 24.6334 15.3113C24.7556 15.4224 25.8 14.4891 26.2889 14.0113C30.4667 9.92239 34.6445 5.85573 38.8667 1.81128C39.4556 1.24462 40.2 0.766838 40.9556 0.455727C41.3556 0.28906 42.1112 0.411283 42.3778 0.700172C42.6445 0.989061 42.7 1.74462 42.5112 2.13351C42.1556 2.87795 41.6223 3.55573 41.0556 4.16684C37.3334 8.25573 33.5889 12.3224 29.8556 16.4002C29.4445 16.8446 29.0334 17.3113 28.4223 17.9891C31.2223 17.7891 33.7445 17.5668 36.2667 17.4335C41.3445 17.178 46.4334 16.9668 51.5112 16.7446C51.8223 16.7335 52.1556 16.7335 52.4223 16.7891C54.1667 17.1557 54.0112 18.9002 52.7001 19.1224C51.1 19.4002 49.4889 19.7446 47.8667 19.9113C42.0556 20.4891 36.2445 21.0002 30.4334 21.5446C30.3112 21.5557 30.2 21.6002 29.8334 21.7002C31.4334 22.9557 32.9112 24.1113 34.3889 25.2557C37.1778 27.4335 40 29.5779 42.7445 31.8002C43.4778 32.4002 44.1223 33.1891 44.5889 34.0113C45.0889 34.878 44.5667 35.6224 43.6112 35.3891C42.4445 35.0891 41.2445 34.6113 40.2556 33.9335C35.4334 30.6446 30.6778 27.2557 25.9 23.9002C25.3667 23.5224 24.8334 23.1446 24.0556 22.5779C23.8889 25.1002 23.7556 27.3668 23.5778 29.6335C23.0445 36.3779 22.5112 43.1224 21.9556 49.8668C21.8889 50.6113 21.7445 51.3668 21.5223 52.078C21.2223 53.0557 20.5556 53.7002 19.4778 53.6224C18.4667 53.5446 17.8778 52.8668 17.7 51.9113C17.5334 51.0002 17.4445 50.0668 17.4556 49.1446C17.5223 43.1224 17.6223 37.1113 17.7112 31.0891C17.7223 30.6446 17.7112 30.2113 17.7112 29.4446C17.2 29.9335 16.8445 30.2557 16.5 30.6002C12.6556 34.4446 8.81116 38.3002 4.9556 42.1446C4.52227 42.578 4.03338 43.0113 3.47782 43.2557C3.10005 43.4224 2.43338 43.4113 2.14449 43.178C1.8556 42.9446 1.78894 42.2891 1.78894 41.9002C1.80005 40.678 2.4556 40.1335 3.03338 39.4335C6.43338 35.3113 9.88894 31.2224 13.3667 27.1557C14.6223 25.6891 15.9889 24.3224 17.6 22.6113C14.5889 22.9557 11.9778 23.2891 9.36671 23.5335C6.8556 23.7668 4.34449 23.9113 1.82227 24.0891C1.5556 24.1113 1.27782 24.0668 1.03338 24.0335C-0.244399 23.8779 0.477824 22.5224 0.844491 22.4335C3.36671 21.8113 5.91116 21.2113 8.46671 20.7446C11.5 20.2224 18.2 19.1891 18.8889 18.9557Z" fill="black"/>
</svg>
