<svg width="55" height="60" viewBox="0 0 55 60" fill="none" xmlns="http://www.w3.org/2000/svg">
<path d="M20.2576 2.29483C20.7878 0.111279 23.9604 0.326665 24.1906 2.56184L25.5884 16.1355C25.7443 17.6492 27.4665 18.4413 28.7172 17.5744L42.8175 7.80119C44.5936 6.57018 46.7892 8.64015 45.6648 10.4856L38.8371 21.692C38.1324 22.8486 38.757 24.3566 40.0731 24.6761L55.6164 28.4501C57.5363 28.9162 57.6897 31.5875 55.8358 32.2704L39.7802 38.1838C38.5402 38.6405 38.0761 40.1528 38.8464 41.2265L44.8441 49.5863C46.1143 51.3567 44.0393 53.5938 42.1785 52.4601L31.308 45.8371C30.1513 45.1324 28.6434 45.757 28.3239 47.0731L25.6283 58.1751C25.102 60.3426 21.9591 60.1521 21.6985 57.9369L19.7715 41.5574C19.5866 39.9865 17.7376 39.2416 16.5154 40.2458L6.01124 48.8769C4.22975 50.3407 1.79432 48.1256 3.08316 46.2137L12.8859 31.6721C13.8086 30.3034 12.7696 28.4693 11.1213 28.557L2.24764 29.0291C-0.139709 29.1561 -0.69771 25.7454 1.60565 25.105L9.16333 23.0037C10.5696 22.6128 11.0969 20.8958 10.1526 19.7829L3.44158 11.8735C1.97239 10.1419 4.06793 7.69002 6.0072 8.87155L14.692 14.1629C15.8486 14.8676 17.3566 14.243 17.6761 12.9269L20.2576 2.29483Z" fill="black"/>
</svg>
