<svg width="56" height="18" viewBox="0 0 56 18" fill="none" xmlns="http://www.w3.org/2000/svg">
<path d="M12.5001 6.4779C11.0667 7.7779 9.67784 8.91124 8.3445 10.3112C6.38895 12.3557 4.56673 14.5223 2.68895 16.6335C2.20006 17.1779 1.81117 17.9779 0.877837 17.5557C0.266726 17.2779 0.266726 16.5779 0.855614 15.4224C1.20006 14.7557 1.58895 14.1112 2.0445 13.5112C4.62228 10.1001 7.66673 7.15568 11.1778 4.71124C11.7778 4.30013 12.4334 3.92235 13.1223 3.68901C14.4334 3.25568 15.4445 4.01123 15.3223 5.38901C15.2445 6.2779 14.9334 7.16679 14.6667 8.03346C14.1556 9.6779 13.5667 11.289 13.0778 12.9446C12.9445 13.4001 12.7778 14.189 13.0556 14.5335C13.5334 15.0446 14.9556 13.5779 15.5889 12.9001C17.5334 10.8446 19.4112 8.72235 21.3334 6.64457C23.2556 4.55568 25.3778 2.6779 27.8556 1.26679C28.5778 0.85568 29.3556 0.500123 30.1556 0.289012C31.4445 -0.055433 32.4667 0.800123 32.3778 2.14457C32.3334 2.78901 32.1445 3.45568 31.8667 4.04457C31.1556 5.52235 30.3445 6.94457 29.6001 8.40013C28.8223 9.92235 28.0112 11.4446 27.7223 13.5112C28.2667 13.0224 28.6223 12.7446 28.9223 12.4112C30.8778 10.3001 32.7889 8.15568 34.7667 6.06679C36.5667 4.16679 38.489 2.38901 40.8112 1.14457C41.689 0.677901 42.6778 0.311235 43.6556 0.177902C45.0112 0.000124263 45.9445 1.03346 45.6778 2.3779C45.4778 3.36679 45.0556 4.32235 44.6334 5.23346C43.8223 6.95568 42.9334 8.63346 42.1001 10.3335C41.9112 10.7112 41.3334 11.6001 41.8556 11.689C42.4112 11.1001 42.9667 10.5001 43.5334 9.92235C45.0334 8.35568 46.5001 6.76679 48.0445 5.24457C49.4334 3.86679 50.9778 2.6779 52.9556 2.23346C54.6223 1.85568 55.8001 2.88901 55.5334 4.5779C55.4001 5.38901 55.1334 6.22235 54.7556 6.95568C53.1112 10.189 51.4112 13.389 49.7223 16.6001C49.5334 16.9446 49.3223 17.3112 49.0223 17.5557C48.7445 17.7779 48.2778 18.0335 48.0112 17.9335C47.7445 17.8335 47.2556 17.4779 47.3112 16.7779C47.3667 16.1335 47.5556 15.6557 47.8112 15.0779C48.989 12.4112 50.2334 9.7779 51.4556 7.13346C51.789 6.42235 52.1445 5.72235 52.4889 5.01123C52.6112 4.80012 52.5778 4.76679 52.5112 4.68901C52.1889 4.52235 51.3001 5.20013 50.9334 5.55568C48.8334 7.5779 46.7667 9.62235 44.7112 11.6779C43.9001 12.489 43.1556 13.3779 42.3445 14.189C41.6778 14.8557 40.8556 15.2335 39.9334 14.789C39.0112 14.3446 38.7556 13.4112 38.9112 12.5223C39.1334 11.2223 39.4112 9.90013 39.9445 8.71124C40.7445 6.90013 41.7889 5.18901 42.7223 3.43346C42.8778 3.13346 43.0112 2.81123 43.2667 2.23346C42.689 2.4779 42.3334 2.5779 42.0112 2.75568C39.9001 3.93346 38.1112 5.52235 36.5001 7.28901C34.5667 9.41124 32.7556 11.6446 30.8445 13.8001C30.0889 14.6557 29.3112 15.5335 28.4112 16.2223C26.6667 17.5779 24.9223 16.8557 24.7001 14.6668C24.6001 13.6335 24.7556 12.5446 25.0001 11.5335C25.6112 8.96679 27.0001 6.73346 28.3112 4.4779C28.5889 4.00012 28.8667 3.52235 29.0445 2.9779C26.9001 3.76679 25.1667 5.12235 23.6001 6.65568C21.1667 9.03346 18.8667 11.5557 16.4889 13.9779C15.8778 14.6001 15.2001 15.2001 14.4556 15.6557C13.1889 16.4224 11.8112 15.8335 11.5001 14.389C11.2667 13.3335 11.2556 12.1668 11.4223 11.1001C11.6556 9.53346 12.6778 6.65568 12.6334 6.4779C12.6334 6.31124 12.5001 6.4779 12.5001 6.4779Z" fill="#81ADC8"/>
</svg>
