<svg width="52" height="26" viewBox="0 0 52 26" fill="none" xmlns="http://www.w3.org/2000/svg">
<path d="M44.2668 8.94424C42.9224 9.71091 41.8002 10.3887 40.6446 10.9998C38.689 12.0442 36.7113 12.9887 34.4335 13.1442C32.1224 13.2998 30.3113 12.422 29.2224 10.4331C28.5557 9.21091 28.2224 7.81091 27.789 6.47758C27.6224 5.95535 27.6002 5.37757 27.4668 4.56646C26.8002 5.58869 26.289 6.3998 25.7446 7.18869C24.4224 9.12202 23.1779 11.1109 21.7335 12.9442C19.7668 15.4665 17.289 15.6776 14.8224 13.6109C13.8557 12.7998 13.0779 11.7442 12.2224 10.7887C11.9668 10.4998 11.7557 10.1776 11.4779 9.81091C10.9779 11.9776 10.5335 14.0442 10.0113 16.0776C8.78905 20.822 4.98905 20.6554 2.28905 18.5776C1.56683 18.022 0.966828 17.2776 0.377939 16.5665C0.000161529 16.0776 -0.0776158 15.4442 0.466829 15.0331C0.955717 14.6554 1.46683 14.922 1.88905 15.322C2.31127 15.7109 2.71127 16.1331 3.16683 16.4665C3.70016 16.8554 4.24461 17.2442 4.84461 17.522C6.53349 18.2998 7.66683 17.8998 8.35572 16.1665C8.84461 14.9442 9.15572 13.6442 9.47794 12.3665C9.77794 11.1776 10.0224 9.96646 10.2668 8.75535C10.4002 8.13313 10.5557 7.51091 11.2335 7.2998C12.0113 7.05535 12.4779 7.5998 12.9113 8.0998C13.4668 8.73313 13.9224 9.44424 14.5113 10.0442C15.2446 10.8109 16.0002 11.5665 16.8335 12.1998C17.9668 13.0554 18.789 13.0109 19.789 11.9998C20.7446 11.0331 21.6668 9.98869 22.4557 8.87758C24.1335 6.48869 25.7224 4.05535 27.3113 1.61091C27.689 1.03313 28.1002 0.633131 28.8002 0.766465C29.4668 0.888687 29.6779 1.43313 29.7668 2.04424C29.9224 3.13313 30.0335 4.24424 30.2446 5.32202C30.4335 6.26646 30.6446 7.23313 31.0002 8.12202C31.9446 10.4998 33.4113 11.2554 35.9224 10.822C37.8113 10.4998 39.5779 9.82202 41.2557 8.92202C42.4668 8.27758 43.6335 7.55535 44.8113 6.86647C45.4335 6.4998 46.0779 6.12202 46.7668 6.66646C47.4113 7.18869 47.3002 7.92202 47.1557 8.63313C47.089 8.93313 46.9779 9.22202 46.8779 9.51091C46.6668 10.0887 46.489 10.6887 46.2224 11.2442C44.2668 15.3887 45.6335 18.7998 48.5779 21.822C49.1224 22.3776 49.8446 22.7665 50.5002 23.2109C50.8224 23.4331 51.2224 23.5665 51.5113 23.822C51.7224 23.9998 51.9557 24.3554 51.9002 24.5665C51.8446 24.7998 51.489 25.022 51.2557 25.1331C50.7446 25.3665 50.0557 25.2998 49.5668 25.0998C48.6002 24.6998 47.6224 24.222 46.8224 23.5665C45.0446 22.122 43.8113 20.2331 42.9113 18.122C42.1446 16.322 42.2446 14.4887 42.8335 12.6776C43.2335 11.4998 43.7224 10.3665 44.2668 8.94424Z" fill="black"/>
</svg>
