<svg width="56" height="56" viewBox="0 0 56 56" fill="none" xmlns="http://www.w3.org/2000/svg">
<path d="M5.21106 18.1112C8.19995 14.6001 11.4777 11.2446 15.1 8.38901C17.6222 6.40012 18.4888 6.30012 19.8777 5.92235C20.2555 5.82235 20.5888 5.58901 20.9111 5.35568C34.4333 -4.18877 51.6666 2.5779 55 19.4223C57.2111 30.6001 51.5111 41.7001 41.7111 46.2335C41.5555 46.3112 41.3222 46.3335 41.2444 46.4557C39.3 49.5001 35.3444 50.6779 32.9333 51.2779C32.4444 51.4557 32.0666 51.9668 31.6222 52.3001C31.2777 52.5557 30.9333 52.8335 30.5444 53.0112C17.8 58.9224 4.09995 51.0112 1.09995 37.9223C0.677731 36.0779 -1.17783 24.9446 5.21106 18.1112ZM31.7555 45.5224C36.3 45.5001 39.2666 44.7557 41.9222 43.3001C54.7 36.289 56.6111 17.2446 45.3666 7.94457C38.9222 2.62235 30.6777 1.72235 23.4333 6.82235C14.8222 12.8779 11.7 25.289 16.5222 34.6668C19.9888 41.4112 25.4888 45.1335 31.7555 45.5224ZM36.1 48.4001C36.6555 48.2001 36.7333 48.0557 36.6444 47.989C36.6444 47.989 36.4111 47.989 36.0222 48.0001C26.0222 48.7557 18.5 44.7779 14.0444 35.8112C9.68884 27.0557 10.7444 18.4557 15.8888 10.2223C15.4777 10.4223 15.1444 10.6668 14.8444 10.9446C7.91106 17.2223 5.86662 27.8557 9.86662 36.9446C13.5555 45.3335 21.3 50.3112 30.0111 49.689C32.0555 49.5446 34.0666 48.8446 36.1 48.4001ZM6.73329 19.5779C6.7444 19.2557 6.4444 19.6557 6.39995 19.7112C6.2444 19.9223 6.08884 20.1446 5.95551 20.3668C4.12218 23.4557 2.97773 26.8001 2.82218 30.389C2.45551 38.5668 5.32217 45.3446 12.2444 49.9668C16.8444 53.0446 21.9555 53.6779 27.3 52.0112C19.4888 51.2223 13.4 47.6001 9.28884 40.9112C5.17773 34.2446 4.52218 27.089 6.73329 19.5779Z" fill="black"/>
<path d="M40.2 26.7C41.7333 26.7556 42.2333 27.5556 41.7333 29C40.4889 32.5556 36.9889 34.2889 33.4222 33.0445C31.3111 32.3 29.6555 30.9445 28.5111 29.0112C27.6333 27.5223 28.0222 26.6667 29.7444 26.5556C31.5444 26.4334 38.5222 26.6334 40.2 26.7ZM39.8555 28.4334C36.7889 28.4334 33.8 28.4334 30.7778 28.4334C33.8444 32 38.3778 32.0667 39.8555 28.4334Z" fill="black"/>
<path d="M27.6997 20.4005C27.7109 22.1338 26.0442 23.7116 24.222 23.7005C22.6331 23.6894 21.522 22.256 21.5109 20.7338C21.4886 19.2116 23.0442 17.7116 24.7553 17.6671C26.3997 17.6116 27.6997 18.8116 27.6997 20.4005ZM24.3664 19.3005C23.5442 19.4338 23.2886 20.2116 23.3553 20.8005C23.4442 21.656 24.0886 21.8671 24.4886 21.8782C24.8664 21.8894 25.6109 21.5116 25.7664 20.7782C25.9664 20.0338 25.5442 19.0227 24.3664 19.3005Z" fill="#CD4631"/>
<path d="M48.9331 20.8669C48.9109 22.5447 47.722 23.778 46.1331 23.7669C44.422 23.7558 43.1887 22.3669 43.2442 20.5114C43.2887 18.9002 44.4887 17.6558 45.9776 17.6891C47.522 17.7336 48.9553 19.2669 48.9331 20.8669ZM47.3998 20.8225C47.3998 19.9669 46.9442 19.3891 46.2331 19.3891C45.7998 19.3891 45.0665 19.7225 45.0665 20.6336C45.0665 22.2225 46.2331 22.1336 46.2331 22.1336C46.8553 22.1114 47.3998 21.8558 47.3998 20.8225Z" fill="#81ADC8"/>
</svg>
