<svg width="40" height="53" viewBox="0 0 40 53" fill="none" xmlns="http://www.w3.org/2000/svg">
<path d="M32.0443 12.722C31.7666 15.4665 31.5666 17.7554 31.2888 20.0331C31.1332 21.2776 30.6221 22.3554 29.2221 22.6554C28.0555 22.8998 26.8444 22.2554 26.1444 20.822C25.4666 19.4443 24.9777 17.9665 24.4666 16.5109C22.9888 12.3331 20.711 8.62203 17.8888 5.23314C17.011 4.17759 16.1444 3.12204 15.1332 1.89981C14.911 2.64426 14.7332 3.24426 14.5555 3.84426C12.6666 10.3665 12.0221 17.0109 12.311 23.7776C12.3999 25.9665 12.1444 28.1998 11.8332 30.3776C11.6332 31.7776 11.111 33.1998 9.42213 33.5109C8.21102 33.7331 7.01102 32.7331 6.27769 30.9109C5.7888 29.6887 5.46657 28.3887 5.02213 27.1443C4.77768 26.4443 4.42213 25.7887 4.09991 25.0554C0.0221288 30.0109 3.13324 46.3554 8.56657 48.7443C8.5888 44.3665 10.5999 40.7443 12.9777 37.322C16.3444 32.4776 18.1777 27.122 18.7888 21.2998C18.8332 20.8665 18.9221 20.422 18.9999 19.9998C19.3777 18.022 20.1888 17.6998 21.6666 19.1665C22.6221 20.1109 23.4666 21.2776 24.0221 22.4887C26.7777 28.422 27.9221 34.5776 26.0555 41.0443C25.8444 41.7554 25.3666 42.7554 25.7221 43.2665C26.3444 44.0443 27.3221 42.7109 27.5332 42.1665C28.0888 40.7331 28.4332 39.2331 28.8777 37.7554C29.1555 36.8331 29.3221 35.822 29.8221 35.022C30.211 34.3998 31.0555 33.6331 31.6332 33.6887C32.2332 33.7443 33.0666 34.5998 33.2666 35.2665C34.7332 40.2331 34.0443 44.7776 29.4666 48.6331C27.111 50.622 24.211 51.2665 21.2444 51.6554C17.8999 52.0887 14.5999 52.222 11.2444 51.4554C9.64435 51.0887 7.97769 50.8443 7.01102 50.4887C6.04435 50.1331 5.22213 49.4109 4.83324 48.8109C-0.111205 41.1776 -0.922315 33.1331 2.55546 24.6998C3.27768 22.9554 4.66657 22.5887 5.8888 24.0331C6.7888 25.0998 7.29991 26.5331 7.86657 27.8665C8.25546 28.7998 8.46657 29.8109 8.73324 30.7887C9.06657 32.0109 9.55546 32.1998 9.8888 31.9887C10.2999 31.8665 10.5444 30.3887 10.4999 28.9109C10.4221 26.4776 10.4666 24.0331 10.211 21.622C9.46657 14.5554 11.1888 7.93315 13.6999 1.44426C14.3221 -0.177965 15.0332 -0.377965 16.3666 0.755368C21.8332 5.3887 25.7777 11.0331 27.5666 18.0554C27.8444 19.122 27.9332 20.322 29.2888 21.1665C29.4221 20.1331 29.5332 19.2776 29.6555 18.4331C29.9666 16.3443 30.1666 14.2331 30.6332 12.1887C30.9221 10.9554 31.7777 10.6998 32.6777 11.5887C33.8555 12.7554 35.011 14.0443 35.7777 15.4998C38.6332 20.9443 39.611 26.8554 39.5888 32.9443C39.5666 37.7331 38.6777 42.3776 36.4777 46.6554C35.7332 48.1109 34.4777 49.3109 33.411 50.5887C32.9332 51.1665 31.8443 50.9776 32.3443 49.6887C32.3888 49.5776 32.4444 49.4443 32.5221 49.3331C36.6555 43.7887 37.0666 37.2998 37.1221 30.7665C37.1666 25.5554 36.411 20.4443 33.9777 15.7331C33.4666 14.7665 32.811 13.8998 32.0443 12.722ZM31.4443 35.5109C30.7888 37.6887 30.2777 39.4887 29.6888 41.2776C29.2221 42.6887 28.511 43.9665 27.111 44.6665C25.4888 45.4887 23.911 44.5776 23.8221 42.7554C23.7888 42.0109 23.8221 41.2443 23.9666 40.522C25.0999 34.722 24.5666 29.0998 22.2999 23.6443C21.911 22.7109 21.3444 21.8554 20.7777 20.8331C20.5777 21.1665 20.4332 22.3776 20.411 22.8998C20.2666 26.8554 19.8221 30.7665 17.7444 34.2554C16.4999 36.3331 15.0999 38.322 13.7444 40.3442C12.2444 42.5998 10.911 44.9331 10.4221 47.6443C10.0888 49.4998 10.2332 49.5887 12.011 50.0443C15.7777 50.9998 19.4666 50.3887 23.1444 49.6554C27.3332 48.822 29.9444 46.0665 31.4999 42.2665C32.3555 40.1887 32.111 38.0331 31.4443 35.5109Z" fill="#CD4631"/>
</svg>
