<svg width="38" height="40" viewBox="0 0 38 40" fill="none" xmlns="http://www.w3.org/2000/svg">
<path d="M26.8887 21.9457C26.7723 21.1078 26.7192 20.3256 26.5478 19.5086C26.3049 18.3511 25.4771 17.3104 24.9039 16.2892C23.7826 14.2918 22.6065 12.0346 20.4796 10.9788C18.4668 9.97951 16.7907 10.372 14.7827 11.0841C13.5508 11.5209 12.7152 13.9424 12.3584 15.0556C11.7743 16.8784 11.4282 18.3973 11.7524 20.3285C12.0001 21.8041 12.5091 24.0272 13.5251 25.1952C14.002 25.7434 14.2704 26.1924 14.8811 26.6093C15.2889 26.8876 15.7558 27.1581 16.116 27.4969C16.7865 28.1276 17.8109 28.232 18.5024 28.9185C19.1108 29.5226 19.99 29.7435 20.1993 30.6786C20.3323 31.2728 20.6388 32.4626 21.4342 32.5064C23.407 32.6153 25.8631 31.8429 27.4266 30.6786C28.1129 30.1675 28.1921 29.0409 27.6387 28.3694C26.9827 27.5733 26.9642 25.9282 26.8887 24.9545C26.8236 24.114 26.3785 23.199 26.7827 22.3519C27.4268 21.0018 27.5807 19.4365 27.366 17.9441C27.0567 15.7946 27.3549 13.9192 25.866 12.1296C25.2951 11.4435 24.5996 10.797 23.9645 10.1664C23.1701 9.37765 22.398 8.56165 21.1918 8.54169C19.3677 8.51151 17.1421 8.51876 15.7372 9.86554C15.1345 10.4433 14.2828 11.1296 14.0024 11.9341C13.4954 13.3883 13.701 14.79 13.866 16.2968C14.1805 19.1695 14.1587 22.6951 16.3887 24.9093C17.0108 25.527 17.3482 24.5693 17.4493 24.112C17.6156 23.3599 17.3233 22.5385 17.2372 21.7953C17.1185 20.7695 16.8466 19.8147 16.5251 18.8316C16.3494 18.2945 15.5483 14.6998 14.419 15.522C13.0796 16.4973 13.3875 20.1384 13.7524 21.3891C14.1381 22.7113 15.1658 25.2334 17.0175 24.7589C18.7511 24.3147 19.2969 22.2609 18.2827 20.9302C17.8055 20.3041 16.0793 18.7669 15.8736 20.4263C15.6647 22.1116 17.0178 24.1628 18.2221 25.1876C18.9908 25.8419 20.602 26.3885 20.9948 24.9845C21.2259 24.1584 19.7098 22.9009 18.9493 23.0589C17.1608 23.4306 19.2244 26.9179 19.6463 27.5946C20.1463 28.3966 23.0892 30.1309 22.4948 28.0384C22.3341 27.4727 20.9164 25.8578 20.2145 26.2934C18.9678 27.067 21.6337 29.8244 22.2978 30.1145C23.2914 30.5485 23.2344 29.5043 22.7978 28.9561C22.4174 28.4785 21.5875 27.8651 21.919 28.9937C22.1467 29.7686 22.8771 31.6031 23.9645 31.3932C25.1144 31.1712 24.477 28.4306 24.2372 27.8128C24.0365 27.2956 23.6204 26.2354 23.0705 25.9624C22.5836 25.7206 22.9707 26.9124 23.0175 27.0305C23.3136 27.7768 24.0748 29.603 25.0857 29.603C26.3173 29.603 25.2165 26.7646 25.0554 26.3761C24.8808 25.9551 24.7051 25.2183 24.2372 25.0071C23.8508 24.8327 24.1917 26.2323 24.2372 26.3761C24.3528 26.7413 25.1493 30.0447 26.0705 29.6331C27.1932 29.1315 26.4686 26.8619 26.2675 26.0451C26.0618 25.2094 25.7847 24.3983 25.5554 23.5704C25.4267 23.1059 25.3797 23.2458 25.4948 23.6456C25.5539 23.8512 25.7945 24.2942 26.0705 24.1571C26.5613 23.9135 26.5011 22.8553 26.5478 22.4196C26.7289 20.7292 26.5722 18.9296 26.4493 17.237C26.3672 16.1055 26.2636 15.2307 25.669 14.2959C24.7845 12.9054 24.6238 11.565 23.1008 10.6027C21.9677 9.88673 20.6387 8.95726 19.3205 9.70006C17.6153 10.661 16.34 12.783 15.6008 14.5291C15.3096 15.2172 15.0119 17.4348 16.3508 16.3569C17.2569 15.6275 17.8336 14.696 18.3054 13.6491C18.7919 12.5692 19.4283 11.4089 19.3054 10.189C19.0637 7.78947 16.5278 11.7232 16.2827 12.2575C15.8153 13.276 14.0731 17.3765 15.8433 18.0042C16.4882 18.2329 17.1837 17.5175 17.5705 17.0866C18.5377 16.0092 19.3218 14.597 19.4948 13.1451C19.5939 12.3133 19.4468 11.1384 18.6008 10.693C17.494 10.1102 16.2641 12.2461 15.8887 12.9495C15.1197 14.3907 14.6288 15.9512 14.5024 17.583C14.4296 18.5222 14.307 19.9933 15.2978 20.5466C16.0843 20.9859 17.0998 19.8298 17.5251 19.3281C18.5973 18.063 19.2744 16.627 19.8433 15.0857C20.2678 13.9356 20.4692 12.5732 20.1387 11.3699C19.8525 10.3278 18.7493 11.8608 18.563 12.1522C17.3989 13.9726 16.8904 16.2586 16.5554 18.3653C16.3774 19.4847 16.0294 21.2912 16.8054 22.2691C18.5684 24.4909 20.9695 18.4586 21.2069 17.6131C21.6108 16.1745 21.8257 14.5751 21.6311 13.0849C21.4439 11.6508 20.5359 13.5877 20.3584 14.0552C19.7696 15.6068 19.5721 17.3704 19.4493 19.0122C19.3627 20.1712 19.1401 21.8079 19.5857 22.9386C19.9963 23.9806 20.8566 23.4302 21.2978 22.7731C22.2513 21.3531 22.5053 19.6218 22.6615 17.9591C22.7935 16.5528 22.7874 15.0584 22.5857 13.6566C22.3522 12.0338 21.7641 15.3803 21.7221 15.6424C21.3853 17.7417 21.1701 19.895 21.1615 22.0209C21.1569 23.1384 20.7766 26.215 22.0402 26.9252C22.7491 27.3236 23.3763 26.3408 23.669 25.8345C24.6166 24.1957 24.6184 21.9563 24.4872 20.1329C24.3942 18.8402 24.233 17.5546 24.0327 16.2742C23.9447 15.7118 23.8949 15.0509 23.616 14.5366C23.2309 13.8265 23.0904 17.1271 23.0933 17.3122C23.103 17.9385 23.6594 26.0575 24.6766 25.5713C25.214 25.3143 25.2696 23.8131 25.313 23.3523C25.5173 21.1789 25.1645 18.8998 24.7751 16.7631C24.7462 16.6044 24.3321 14.9819 24.3281 14.9955C23.987 16.1622 24.1615 17.6383 24.1615 18.8316C24.1615 20.2057 24.0912 21.6094 24.4342 22.9536C24.5732 23.4985 24.8743 24.1363 25.1463 23.2846C25.9944 20.6288 25.2251 17.3485 24.5024 14.7172C24.3112 14.0212 24.2822 14.5249 24.3281 14.9203C24.449 15.9601 24.5969 17.1174 24.9796 18.0945C25.0437 18.2581 25.5105 19.2898 25.8508 18.8768C26.1795 18.478 25.827 17.3336 25.7145 16.9211C25.3159 15.4598 24.5609 14.1058 23.7599 12.8292C23.3278 12.1404 22.8298 11.313 21.9872 11.069C19.8416 10.4477 20.0708 16.8598 20.1008 17.7184C20.1505 19.1362 20.3237 20.5341 20.7448 21.893C20.8089 22.0999 21.2198 23.3995 21.563 22.8032C22.0662 21.9288 21.2201 20.2432 20.8281 19.4785C20.4705 18.7809 19.2124 16.316 18.2372 16.3494C17.1992 16.385 17.2091 18.3781 17.2372 19.0122C17.3169 20.8101 17.7258 22.5849 18.5402 24.2023C18.9348 24.9857 19.627 25.8496 20.5327 26.0527C20.9057 26.1363 21.7377 26.0308 21.6084 25.4659C21.4793 24.9017 20.7238 24.5896 20.2978 24.3076C19.4496 23.7461 18.6491 23.1421 17.7372 22.6828C16.1828 21.9 17.6767 24.5176 17.9721 25.0823C18.4498 25.9959 19.0985 27.1512 20.1236 27.5495C20.5569 27.7179 20.6764 27.4158 20.3205 27.1509C19.6288 26.6357 18.9431 26.1134 18.2372 25.6164C17.9565 25.4188 16.9478 24.3564 16.5554 24.443C16.5336 24.4478 18.3163 26.7664 18.6387 27.0155C19.7392 27.8653 16.4036 25.359 15.2524 24.5784C14.3554 23.9702 14.8549 24.2815 15.3736 24.789C15.8565 25.2616 16.2992 25.7654 16.7675 26.2482C17.1554 26.6482 17.6822 26.4335 18.2372 26.6318C19.0245 26.9133 19.8426 27.8484 20.7524 27.196C21.6307 26.5662 21.5512 26.3648 21.9796 27.5194C22.4945 28.9071 22.7488 30.3767 23.0705 31.8144C23.1802 32.3045 23.3418 31.7137 23.419 31.5135C23.6246 30.9807 23.8776 30.3734 23.8887 29.7986C23.9088 28.7602 23.0591 28.4571 22.3963 29.3247C22.1999 29.5817 21.3788 31.3401 22.3887 30.8817C22.895 30.6519 23.089 30.3235 23.2069 29.7835C23.5653 28.1428 23.5607 26.347 23.419 24.6837C23.3816 24.2446 23.3287 22.1057 22.6539 21.9382C21.8672 21.7429 21.483 24.846 21.4342 25.3005C21.3012 26.5383 21.0591 27.7936 21.2978 29.0313C21.5125 30.1443 22.0346 29.7633 22.3584 28.8959C22.8717 27.5212 22.9119 25.8944 22.8508 24.4505C22.8084 23.4481 22.6876 22.4782 22.4569 21.5019C22.3823 21.1861 22.3099 20.4253 21.9721 20.2157C21.397 19.8588 21.3111 22.2621 21.2978 22.4798C21.256 23.1643 21.0455 25.208 21.169 24.5332C21.6503 21.9052 20.7754 18.7258 19.3584 16.4999C17.6124 13.7571 15.7221 18.406 15.7221 19.9599C15.7221 20.2295 15.7525 21.1788 16.2524 20.9378C17.1371 20.5111 17.0183 18.8736 17.0099 18.1095C17.0014 17.3347 16.8568 15.063 15.9796 14.6194C14.9207 14.0838 14.8984 17.8575 14.8887 18.1547" stroke="#FFD700" stroke-width="1.63463" stroke-linecap="round" stroke-linejoin="round"/>
<path d="M22.1166 34.6727C22.8372 34.5331 23.5885 34.348 24.306 34.259C24.9455 34.1796 25.8245 33.4292 26.3969 33.1232C26.9228 32.842 27.5806 32.7809 28.0863 32.4462C28.2851 32.3146 28.967 31.389 28.9348 31.9648C28.9149 32.3197 28.4022 32.9287 28.2454 33.2661C27.9652 33.8689 27.329 34.457 26.8135 34.8758C26.2548 35.3297 25.704 35.7049 25.056 36.0266C24.4395 36.3327 23.6571 36.5076 23.1317 36.9744C22.7593 37.3053 23.3858 37.3177 23.6923 37.3731C24.2732 37.4779 24.8639 37.3668 25.3363 37.0421C25.8979 36.656 26.6797 36.2715 27.3287 36.0567C27.9076 35.8651 28.2806 35.5014 28.7984 35.2444C29.0009 35.1438 29.7351 34.9847 29.2757 35.3497C29.0557 35.5244 29.0561 35.9963 28.9348 36.2372C28.7815 36.5416 28.4285 36.8321 28.1696 37.0496C27.6036 37.5251 26.9885 38.0736 26.3439 38.4336C26.0685 38.5874 27.2584 38.708 27.2984 38.7345" stroke="#4D4D4D" stroke-width="1.63463" stroke-linecap="round" stroke-linejoin="round"/>
<path d="M21.2981 31.2879C21.2981 29.8992 21.4345 28.5503 21.4345 27.1659C21.4345 25.4547 20.9018 23.7664 20.4496 22.1262C19.9804 20.424 19.3897 18.7272 18.2981 17.3122C17.6498 16.4718 16.971 15.0406 15.7375 15.0406C15.0067 15.0406 14.889 15.699 14.889 16.2591C14.889 17.3205 15.4833 18.2418 16.3587 18.8316C17.3245 19.4823 18.561 19.6343 19.6315 20.0502C20.5219 20.3961 21.4278 20.8103 22.086 19.9148C23.3825 18.1507 23.6985 16.0491 23.6163 13.9273C23.6082 13.7183 23.2863 13.0064 23.0406 13.2504C22.5638 13.7238 22.2672 14.6018 22.2527 15.2662C22.1876 18.237 22.5882 21.4647 23.783 24.2023C24.0506 24.8155 24.3218 25.4286 24.6466 26.015C24.898 26.4689 24.9804 27.0057 25.283 27.4216C25.4548 27.6578 26.7415 29.1519 26.2072 28.4446" stroke="#4D4D4D" stroke-width="1.63463" stroke-linecap="round" stroke-linejoin="round"/>
<path d="M9.97925 33.3188C10.7568 32.5468 11.4062 31.7044 12.055 30.8215C12.473 30.2528 12.3238 30.4188 12.1611 29.934" stroke="#FFD700" stroke-width="1.63463" stroke-linecap="round" stroke-linejoin="round"/>
<path d="M3.70667 22.2164C4.44247 21.963 5.41742 21.6066 6.05515 21.1634C6.14916 21.098 5.91521 21.7279 5.75212 21.4041" stroke="#FFD700" stroke-width="1.63463" stroke-linecap="round" stroke-linejoin="round"/>
<path d="M1.66162 9.48938C2.59995 10.1168 3.51964 10.7079 4.69192 10.7079C4.95233 10.7079 5.80564 10.678 5.61617 10.3017" stroke="#FFD700" stroke-width="1.63463" stroke-linecap="round" stroke-linejoin="round"/>
<path d="M12.0254 2.17822C12.2235 3.09635 12.5738 3.7841 13.1087 4.54762C13.2003 4.6783 13.8582 5.38183 13.5254 4.8861" stroke="#FFD700" stroke-width="1.63463" stroke-linecap="round" stroke-linejoin="round"/>
<path d="M24.2979 3.66745C24.8955 3.26784 25.5692 2.83752 26.0706 2.31351C26.2152 2.16233 26.7524 1.4464 26.7524 1.50115" stroke="#FFD700" stroke-width="1.63463" stroke-linecap="round" stroke-linejoin="round"/>
<path d="M32.4792 10.3018C33.8456 9.85882 36.5702 8.94788 36.5702 8.94788" stroke="#FFD700" stroke-width="1.63463" stroke-linecap="round" stroke-linejoin="round"/>
<path d="M32.6166 21.4042C33.4318 22.1898 34.2089 22.0795 35.2075 22.4572C35.6484 22.624 35.8147 22.4725 35.2075 22.3519" stroke="#FFD700" stroke-width="1.63463" stroke-linecap="round" stroke-linejoin="round"/>
</svg>
