<svg width="48" height="30" viewBox="0 0 48 30" fill="none" xmlns="http://www.w3.org/2000/svg">
<path d="M3.11108 19.6555C2.7333 19.1888 1.76664 20.4666 1.06664 19.8555C0.366636 19.2555 1.3333 18.4222 1.7333 17.8999C2.42219 16.9888 3.25553 16.1666 4.14441 15.4666C4.48886 15.1888 5.28886 14.7777 5.68886 15.2888C5.94441 15.6111 6.01108 15.8999 5.59997 16.6777C5.37775 17.0888 5.26664 17.3111 4.67775 18.0222C4.67775 18.2444 5.01108 18.4888 5.26664 18.7111C10.6111 23.3666 16.6444 26.5222 23.8555 26.8666C31.0666 27.2222 37.2666 24.9888 41.9777 19.2999C42.4 18.7999 42.9777 18.3333 43.0555 17.7555C43.1111 17.3222 42.9222 17.0999 42.3333 16.2777C42.1444 16.0222 42.0555 15.3999 42.4 15.0111C42.9666 14.3444 43.5777 14.6888 43.7889 14.8888C45.2222 16.2888 46.3333 17.9333 47.1444 19.4111C47.3 19.8999 47.0444 20.2999 46.7889 20.5444C46.5777 20.7444 46.0222 20.7222 45.6889 20.5999C45.3 20.4555 44.9777 20.1111 44.4666 19.7333C39.3111 26.4888 32.3444 29.711 23.9 29.3999C15.5889 29.1222 8.31108 25.5777 3.11108 19.6555Z" fill="black"/>
<path d="M33.3112 7.4442C33.2779 4.52197 35.3445 2.16642 37.9223 2.17753C40.1667 2.18864 42.1667 4.47753 42.189 7.06642C42.2001 9.52197 40.0223 11.7998 37.6112 11.8331C35.1779 11.8553 33.3334 9.97753 33.3112 7.4442ZM35.4556 7.13308C35.4779 8.53308 36.4334 9.5442 37.7334 9.52198C38.8667 9.49975 39.9556 8.38864 39.9001 7.27753C39.8445 5.91086 39.1223 4.49975 37.3667 4.69975C36.3667 4.81086 35.4334 5.51086 35.4556 7.13308Z" fill="#CD4631"/>
<path d="M13.5222 5.19986C13.5 7.79986 11.3777 9.99986 8.86662 10.011C6.47773 10.0221 4.57773 7.91097 4.68884 5.18875C4.81106 1.84431 6.66662 0.810973 9.38884 0.566529C11.5222 0.37764 13.5333 2.79986 13.5222 5.19986ZM6.77773 4.96653C6.76662 6.61097 7.65551 7.84431 8.8444 7.85542C10.1666 7.86653 11.3999 6.57764 11.3999 5.16653C11.3999 3.86653 10.2222 2.62208 9.02217 2.65542C7.49995 2.69986 6.77773 3.44431 6.77773 4.96653Z" fill="#81ADC8"/>
</svg>
