<svg width="52" height="56" viewBox="0 0 52 56" fill="none" xmlns="http://www.w3.org/2000/svg">
<path d="M51.1557 16.3002C51.5001 16.678 51.5446 17.2335 51.2779 17.678C51.0334 18.0891 50.8223 18.4446 50.5779 18.778C48.0446 22.2891 46.6557 24.1224 44.1557 27.6557C43.5223 28.5446 41.989 31.2669 41.4001 32.2002C41.389 32.2113 41.389 32.2224 41.3779 32.2335C40.8446 33.0335 39.5334 32.978 39.1112 32.1002C39.1112 32.1002 39.1112 32.0891 39.1001 32.0891C38.4779 30.7224 37.9779 29.3113 37.4001 27.9224C35.8112 24.0891 33.6001 20.7668 29.9223 18.5891C28.589 17.8002 28.5668 17.2224 29.6001 16.078C29.989 15.6557 30.3779 15.2224 30.8001 14.8446C34.8779 11.2113 37.689 6.72241 39.789 1.72241C39.9223 1.41129 40.189 1.16685 40.4779 0.922405C40.8557 0.611294 41.4001 0.655739 41.7334 1.01129C42.0112 1.30018 42.2668 1.61129 42.4223 1.95574C42.7668 2.75574 42.8557 3.65574 43.0668 4.51129C44.2001 9.16685 46.7223 12.878 50.5557 15.7335C50.7668 15.8891 50.9557 16.0891 51.1557 16.3002ZM40.9446 5.14463C39.6223 7.34463 38.5112 9.61129 37.0001 11.5891C35.4557 13.6002 33.5223 15.3113 31.7557 17.1668C36.2446 19.8557 38.8446 24.1113 40.4112 29.3335C42.7112 24.578 45.889 20.8002 49.3779 17.2668C43.8668 13.0668 42.5557 11.1669 40.9446 5.14463Z" fill="black"/>
<path d="M9.25562 54.6448C8.2445 51.7781 7.36673 48.8559 6.25562 46.0336C5.16673 43.3003 3.5445 40.867 1.21117 38.9892C0.355614 38.3003 0.377837 37.6781 1.07784 36.9003C5.01117 32.6225 8.03339 27.7781 10.2001 22.3892C10.4334 21.8114 11.0556 20.8892 11.489 20.8892C12.6667 20.6114 13.089 22.9114 13.1334 23.1225C14.1223 28.5448 17.4778 32.4892 21.2445 36.1781C22.4667 37.3781 22.5667 37.7448 21.3667 38.9003C16.8445 43.2337 13.8445 48.567 11.2667 54.1781C10.4556 56.1337 9.37784 54.9892 9.25562 54.6448ZM2.56673 37.667C4.96673 39.1892 6.55562 41.2225 7.71117 43.5225C8.8334 45.7781 9.65562 48.167 10.589 50.4559C12.7445 45.6336 15.6556 41.1781 20.0778 37.7892C15.8001 34.4225 12.4223 30.5781 11.389 25.067C9.53339 30.0225 6.58895 34.1448 2.56673 37.667Z" fill="#81ADC8"/>
<path d="M39.6222 42.6892C37.1666 45.9892 35.6666 49.7559 34.2888 53.5893C34.2 53.8337 33.9111 55.2226 32.8555 55.2115C32.5555 55.2115 32.0555 54.7337 31.8666 54.3559C31.0333 52.6559 30.5111 50.7559 29.4555 49.2226C28.2111 47.4004 26.5 45.9004 25.0555 44.2226C24.8444 43.9781 24.7666 43.4226 24.9 43.1226C25.1555 42.567 25.6111 42.1226 25.9666 41.6115C27.7777 38.9448 29.5555 36.2559 31.4222 33.6337C31.8111 33.0893 32.5777 32.4337 33.0333 32.4337C34.1666 32.4226 34.3888 33.3115 34.5888 33.9448C35.5 36.8559 37.0666 39.2893 39.3444 41.3004C40.1555 42.0559 39.7222 42.5559 39.6222 42.6892ZM27.1444 43.4559C29.7888 45.3337 31.5888 48.0448 32.6777 51.0781C34.2888 48.1226 35.9333 45.1115 37.6222 42.0004C35.3555 40.4337 33.7777 37.5115 33.0555 35.3559C31.0777 38.067 29.1222 40.7448 27.1444 43.4559Z" fill="#CD4631"/>
</svg>
