<svg width="34" height="34" viewBox="0 0 34 34" fill="none" xmlns="http://www.w3.org/2000/svg">
<path d="M16.0778 16.5441C16.2111 16.0107 16.2889 15.5774 16.4333 15.1552C17.8778 10.8885 20.2 7.08851 22.8444 3.4774C23.1555 3.05518 23.5444 2.65518 23.9778 2.38851C24.2111 2.24407 24.6778 2.26629 24.9444 2.41073C25.1444 2.52184 25.2889 2.95518 25.2444 3.19962C25.1667 3.66629 25 4.14407 24.7667 4.56629C23.2333 7.35518 21.6889 10.133 20.1222 12.8996C19.5333 13.933 18.9111 14.9552 18.3 15.9774C18.1 16.3218 17.8778 16.6552 17.6444 16.9663C17.3889 17.3218 17 17.533 16.6111 17.2996C16.3555 17.1441 16.0778 17.033 16.0778 16.5441Z" fill="#CD4631"/>
<path d="M31.8111 33.0889C31.2778 33 30.6556 32.9333 30.0556 32.8C27.6889 32.2666 25.3222 31.7333 22.9667 31.1778C22.4556 31.0555 21.9556 30.8444 21.5 30.6C20.8889 30.2778 20.6778 29.8222 20.7778 29.3222C20.8778 28.8222 21.2778 28.5111 21.9778 28.5C22.4556 28.4889 22.9667 28.5 23.4222 28.6111C26.4111 29.3666 29.4 30.1444 32.3778 30.9333C32.7111 31.0222 33.0556 31.1777 33.3111 31.4C33.9556 31.9444 33.7556 32.8 32.9333 33.0111C32.6111 33.0889 32.2444 33.0555 31.8111 33.0889Z" fill="#CD4631"/>
<path d="M0.589016 3.29979C0.633461 2.77757 0.744572 2.25534 0.877905 1.74423C1.00013 1.28868 1.31124 0.966456 1.81124 0.922011C2.23346 0.888678 2.68902 1.3109 2.75568 1.86646C2.84457 2.6109 2.92235 3.36646 2.88902 4.1109C2.78902 6.35535 2.64457 8.6109 2.48902 10.8553C2.43346 11.5998 2.33346 12.3442 2.21124 13.0887C2.16679 13.3442 2.07791 13.6109 1.93346 13.8109C1.54457 14.3776 0.833461 14.3331 0.555683 13.722C0.400128 13.3776 0.333461 12.9553 0.333461 12.5776C0.277906 11.3331 0.444572 5.14423 0.589016 3.29979Z" fill="#CD4631"/>
</svg>
